<svg id="visual" viewBox="0 0 960 540" width="960" height="540" xmlns="http://www.w3.org/2000/svg" xmlns:xlink="http://www.w3.org/1999/xlink" version="1.1"><rect x="0" y="0" width="960" height="540" fill="#010c14"></rect><defs><linearGradient id="grad1_0" x1="43.8%" y1="100%" x2="100%" y2="0%"><stop offset="14.444444444444446%" stop-color="#004939" stop-opacity="1"></stop><stop offset="85.55555555555554%" stop-color="#004939" stop-opacity="1"></stop></linearGradient></defs><defs><linearGradient id="grad1_1" x1="43.8%" y1="100%" x2="100%" y2="0%"><stop offset="14.444444444444446%" stop-color="#004939" stop-opacity="1"></stop><stop offset="85.55555555555554%" stop-color="#002b31" stop-opacity="1"></stop></linearGradient></defs><defs><linearGradient id="grad1_2" x1="43.8%" y1="100%" x2="100%" y2="0%"><stop offset="14.444444444444446%" stop-color="#010c14" stop-opacity="1"></stop><stop offset="85.55555555555554%" stop-color="#002b31" stop-opacity="1"></stop></linearGradient></defs><defs><linearGradient id="grad2_0" x1="0%" y1="100%" x2="56.3%" y2="0%"><stop offset="14.444444444444446%" stop-color="#004939" stop-opacity="1"></stop><stop offset="85.55555555555554%" stop-color="#004939" stop-opacity="1"></stop></linearGradient></defs><defs><linearGradient id="grad2_1" x1="0%" y1="100%" x2="56.3%" y2="0%"><stop offset="14.444444444444446%" stop-color="#002b31" stop-opacity="1"></stop><stop offset="85.55555555555554%" stop-color="#004939" stop-opacity="1"></stop></linearGradient></defs><defs><linearGradient id="grad2_2" x1="0%" y1="100%" x2="56.3%" y2="0%"><stop offset="14.444444444444446%" stop-color="#002b31" stop-opacity="1"></stop><stop offset="85.55555555555554%" stop-color="#010c14" stop-opacity="1"></stop></linearGradient></defs><g transform="translate(960, 540)"><path d="M-351 0C-303.2 -38.7 -255.4 -77.5 -232.1 -134C-208.8 -190.5 -210.1 -264.8 -175.5 -304C-140.9 -343.1 -70.5 -347.1 0 -351L0 0Z" fill="#041c24"></path><path d="M-234 0C-202.1 -25.8 -170.2 -51.6 -154.7 -89.3C-139.2 -127 -140.1 -176.6 -117 -202.6C-93.9 -228.7 -47 -231.4 0 -234L0 0Z" fill="#003a38"></path><path d="M-117 0C-101.1 -12.9 -85.1 -25.8 -77.4 -44.7C-69.6 -63.5 -70 -88.3 -58.5 -101.3C-47 -114.4 -23.5 -115.7 0 -117L0 0Z" fill="#004939"></path></g><g transform="translate(0, 0)"><path d="M351 0C315.7 45.9 280.3 91.9 255.5 147.5C230.6 203.1 216.3 268.4 175.5 304C134.7 339.5 67.3 345.3 0 351L0 0Z" fill="#041c24"></path><path d="M234 0C210.4 30.6 186.9 61.2 170.3 98.3C153.8 135.4 144.2 179 117 202.6C89.8 226.3 44.9 230.2 0 234L0 0Z" fill="#003a38"></path><path d="M117 0C105.2 15.3 93.4 30.6 85.2 49.2C76.9 67.7 72.1 89.5 58.5 101.3C44.9 113.2 22.4 115.1 0 117L0 0Z" fill="#004939"></path></g></svg>