<svg id="visual" viewBox="0 0 960 300" width="960" height="300" xmlns="http://www.w3.org/2000/svg" xmlns:xlink="http://www.w3.org/1999/xlink" version="1.1"><path d="M0 141L14.5 144.7C29 148.3 58 155.7 87.2 159C116.3 162.3 145.7 161.7 174.8 160C204 158.3 233 155.7 262 155.5C291 155.3 320 157.7 349 152.2C378 146.7 407 133.3 436.2 132.7C465.3 132 494.7 144 523.8 152.8C553 161.7 582 167.3 611 163C640 158.7 669 144.3 698 143.8C727 143.3 756 156.7 785.2 162.5C814.3 168.3 843.7 166.7 872.8 158.7C902 150.7 931 136.3 945.5 129.2L960 122L960 0L945.5 0C931 0 902 0 872.8 0C843.7 0 814.3 0 785.2 0C756 0 727 0 698 0C669 0 640 0 611 0C582 0 553 0 523.8 0C494.7 0 465.3 0 436.2 0C407 0 378 0 349 0C320 0 291 0 262 0C233 0 204 0 174.8 0C145.7 0 116.3 0 87.2 0C58 0 29 0 14.5 0L0 0Z" fill="#fa7268"></path><path d="M0 83L14.5 86.5C29 90 58 97 87.2 97.5C116.3 98 145.7 92 174.8 90C204 88 233 90 262 98.5C291 107 320 122 349 120C378 118 407 99 436.2 94.5C465.3 90 494.7 100 523.8 103.2C553 106.3 582 102.7 611 106.2C640 109.7 669 120.3 698 117C727 113.7 756 96.3 785.2 95.5C814.3 94.7 843.7 110.3 872.8 113.2C902 116 931 106 945.5 101L960 96L960 0L945.5 0C931 0 902 0 872.8 0C843.7 0 814.3 0 785.2 0C756 0 727 0 698 0C669 0 640 0 611 0C582 0 553 0 523.8 0C494.7 0 465.3 0 436.2 0C407 0 378 0 349 0C320 0 291 0 262 0C233 0 204 0 174.8 0C145.7 0 116.3 0 87.2 0C58 0 29 0 14.5 0L0 0Z" fill="#eb5967"></path><path d="M0 81L14.5 78.3C29 75.7 58 70.3 87.2 70.2C116.3 70 145.7 75 174.8 74.5C204 74 233 68 262 64C291 60 320 58 349 56.2C378 54.3 407 52.7 436.2 59.2C465.3 65.7 494.7 80.3 523.8 85.7C553 91 582 87 611 85.7C640 84.3 669 85.7 698 88.2C727 90.7 756 94.3 785.2 96C814.3 97.7 843.7 97.3 872.8 89.3C902 81.3 931 65.7 945.5 57.8L960 50L960 0L945.5 0C931 0 902 0 872.8 0C843.7 0 814.3 0 785.2 0C756 0 727 0 698 0C669 0 640 0 611 0C582 0 553 0 523.8 0C494.7 0 465.3 0 436.2 0C407 0 378 0 349 0C320 0 291 0 262 0C233 0 204 0 174.8 0C145.7 0 116.3 0 87.2 0C58 0 29 0 14.5 0L0 0Z" fill="#da3f67"></path><path d="M0 22L14.5 22.7C29 23.3 58 24.7 87.2 31C116.3 37.3 145.7 48.7 174.8 54.3C204 60 233 60 262 54.5C291 49 320 38 349 35.8C378 33.7 407 40.3 436.2 44.8C465.3 49.3 494.7 51.7 523.8 53.8C553 56 582 58 611 54C640 50 669 40 698 35.3C727 30.7 756 31.3 785.2 31.2C814.3 31 843.7 30 872.8 33.7C902 37.3 931 45.7 945.5 49.8L960 54L960 0L945.5 0C931 0 902 0 872.8 0C843.7 0 814.3 0 785.2 0C756 0 727 0 698 0C669 0 640 0 611 0C582 0 553 0 523.8 0C494.7 0 465.3 0 436.2 0C407 0 378 0 349 0C320 0 291 0 262 0C233 0 204 0 174.8 0C145.7 0 116.3 0 87.2 0C58 0 29 0 14.5 0L0 0Z" fill="#c62368"></path></svg>