<svg id="visual" viewBox="0 0 960 540" width="960" height="540" xmlns="http://www.w3.org/2000/svg" xmlns:xlink="http://www.w3.org/1999/xlink" version="1.1"><path d="M0 173L20 177C40 181 80 189 120 174C160 159 200 121 240 111.8C280 102.7 320 122.3 360 137C400 151.7 440 161.3 480 143.3C520 125.3 560 79.7 600 59.5C640 39.3 680 44.7 720 77.2C760 109.7 800 169.3 840 177.5C880 185.7 920 142.3 940 120.7L960 99L960 0L940 0C920 0 880 0 840 0C800 0 760 0 720 0C680 0 640 0 600 0C560 0 520 0 480 0C440 0 400 0 360 0C320 0 280 0 240 0C200 0 160 0 120 0C80 0 40 0 20 0L0 0Z" fill="#0066FF" stroke-linecap="round" stroke-linejoin="miter"></path></svg>